General
Aladdin in Hindi - Episode 43 - A Clockwork Hero(vickpirate).mkv
Format                                   : Matroska
Format version                           : Version 4 / Version 2
File size                                : 261 MiB
Duration                                 : 20mn 44s
Overall bit rate                         : 1 760 Kbps
Encoded date                             : UTC 2013-02-10 20:38:34
Writing application                      : mkvmerge v6.0.0 ('Coming Up For Air') built on Jan 20 2013 09:52:00
Writing library                          : Lavf52.94.0

Video
ID                                       : 1
Format                                   : AVC
Format/Info                              : Advanced Video Codec
Format profile                           : Main@L3.0
Format settings, CABAC                   : Yes
Format settings, ReFrames                : 2 frames
Codec ID                                 : V_MPEG4/ISO/AVC
Duration                                 : 20mn 44s
Bit rate                                 : 1 587 Kbps
Width                                    : 576 pixels
Height                                   : 416 pixels
Display aspect ratio                     : 1.385
Frame rate mode                          : Constant
Frame rate                               : 29.970 fps
Color space                              : YUV
Chroma subsampling                       : 4:2:0
Bit depth                                : 8 bits
Scan type                                : Progressive
Bits/(Pixel*Frame)                       : 0.221
Stream size                              : 227 MiB (87%)

Default                                  : Yes
Forced                                   : No

Audio
ID                                       : 2
Format                                   : MPEG Audio
Format version                           : Version 1
Format profile                           : Layer 3
Mode                                     : Joint stereo
Mode extension                           : MS Stereo
Codec ID                                 : A_MPEG/L3
Codec ID/Hint                            : MP3
Duration                                 : 20mn 44s
Bit rate mode                            : Constant
Bit rate                                 : 192 Kbps
Channel(s)                               : 2 channels
Sampling rate                            : 48.0 KHz
Compression mode                         : Lossy
Delay relative to video                  : 29s 0ms
Stream size                              : 28.5 MiB (11%)
Writing library                          : LAME3.98.4
Default                                  : Yes
Forced                                   : No
[/b]


screens:-
 
http://postimage.org/image/nxy4dp62b/ 
http://postimage.org/image/6lxrs9ckz/ 
http://postimage.org/image/6agbfhw4z/ 
http://postimage.org/image/drpiuplo3/ 
http://postimage.org/image/llq4g3tgz/ 
http://postimage.org/image/cfcf6kdmb/ 
http://postimage.org/image/5dehkda0j/ 
http://postimage.org/image/xesiy2far/ 
http://postimage.org/image/z7vfme0hf/ 
http://postimage.org/image/54gwufx83/ 
http://postimage.org/image/w3krpljoz/

